<svg width="347" height="88" viewBox="0 0 347 88" fill="none" xmlns="http://www.w3.org/2000/svg">
  <g clip-path="url(#clip0_1040_18)">
  <path d="M39.7414 17.7937C39.5369 17.7937 39.3344 17.8398 39.1571 17.9417L9.92097 34.8393C9.57538 35.0368 9.36523 35.4062 9.36523 35.8041V69.5964C9.36523 69.9937 9.57678 70.3616 9.92097 70.5606L39.1571 87.4588C39.5027 87.6599 39.9278 87.6599 40.272 87.4588L69.5088 70.5606C69.8544 70.363 70.0646 69.9937 70.0646 69.5964V35.8041C70.0646 35.4069 69.853 35.0389 69.5088 34.84L40.272 17.9417C40.1101 17.8503 39.9264 17.7972 39.7414 17.7937ZM39.7058 20.1926L67.8263 36.445V68.9541L39.7058 85.2065L11.5854 68.9541V36.445L39.7058 20.1926ZM27.9153 37.3896C27.3107 37.3896 26.9135 37.4245 26.9135 37.4245L31.263 41.0487L30.4545 44.4843L27.4092 45.7913L22.8606 42.9421C22.8606 42.9421 24.5425 47.286 26.3752 48.7152C26.8772 49.1068 28.4731 49.3896 31.8215 48.6733L36.3686 53.2665L27.0629 62.6616C25.9221 62.538 24.7862 62.9402 23.9735 63.7493C22.4899 65.2329 22.4899 67.6381 23.9735 69.121C25.4564 70.6045 27.8616 70.6045 29.3445 69.121C30.1641 68.302 30.5655 67.1522 30.4329 66.0009L39.7051 56.6358L48.976 66.0009C48.8419 67.1522 49.2441 68.302 50.0637 69.121C51.5473 70.6045 53.9518 70.6045 55.4354 69.121C56.9182 67.6381 56.9182 65.2329 55.4354 63.7493C54.6227 62.9388 53.4868 62.5387 52.3453 62.6616L43.0402 53.2665L47.5873 48.6733C50.935 49.3896 52.531 49.1075 53.033 48.7152C54.8664 47.286 56.5475 42.9421 56.5475 42.9421L51.999 45.7913L48.9543 44.4843L48.1459 41.0487L52.4954 37.4245C52.4954 37.4245 46.1422 37.0824 45.5627 38.6945C44.1852 42.5295 44.4303 45.1259 44.4303 45.1259L39.7044 49.8978L34.9786 45.1259C34.9786 45.1259 35.225 42.5295 33.8455 38.6945C33.4112 37.4846 29.7291 37.375 27.9153 37.3959V37.3896ZM26.6105 64.9166C27.0342 64.9166 27.4587 65.0786 27.7827 65.4019C28.4306 66.0491 28.4306 67.0991 27.7827 67.7463C27.1348 68.3935 26.0854 68.3935 25.4383 67.7463C24.7911 67.0991 24.7911 66.0491 25.4383 65.4019C25.7629 65.0772 26.186 64.9166 26.6105 64.9166ZM52.7977 64.9166C53.2222 64.9166 53.6467 65.0786 53.9706 65.4019C54.6178 66.0491 54.6178 67.0991 53.9706 67.7463C53.3234 68.3935 52.2727 68.3935 51.6255 67.7463C50.9783 67.0991 50.9783 66.0491 51.6255 65.4019C51.9501 65.0772 52.3739 64.9166 52.7977 64.9166Z" fill="#111111"/>
  <path d="M86.7395 68.9582V68.1881H91.1548V35.7918H84.8912C82.2728 35.7918 81.1946 37.178 80.7839 40.9259L80.3731 44.6225H79.603C79.603 44.6225 79.9111 40.0018 79.9111 38.2562V35.0217H108.714V38.2562C108.714 40.0018 108.919 44.6225 108.919 44.6225H108.149L107.789 40.8232C107.481 37.332 106.506 35.7918 103.836 35.7918H97.4184V68.1881H101.885V68.9582H86.7395ZM111.127 68.9582V68.1881H114.515V46.6248H111.127V45.8547H120.265V68.1881H123.654V68.9582H111.127ZM113.899 37.4347C113.899 35.6378 115.388 34.2002 117.185 34.2002C118.93 34.2002 120.368 35.6378 120.368 37.4347C120.368 39.1803 118.93 40.6692 117.185 40.6692C115.388 40.6692 113.899 39.1803 113.899 37.4347ZM125.451 68.9582V68.1881H128.839V46.6248H125.451V45.8547H134.487V51.2968H134.589C135.565 48.5244 137.567 45.4953 141.264 45.4953C144.139 45.4953 146.449 47.2409 146.449 50.2187C146.449 53.0424 144.498 54.5827 142.239 54.5827C141.675 54.5827 141.007 54.48 140.34 54.2746V53.8639C141.931 54.1206 142.239 52.1183 142.239 50.424C142.239 48.011 141.469 46.6761 139.929 46.6761C138.543 46.6761 137.311 47.7543 136.335 49.3459C135.206 51.1942 134.589 53.7099 134.589 55.0961V68.1881H138.543V68.9582H125.451ZM154.767 56.7904V57.5605C154.767 66.6479 156.923 68.4962 160.671 68.4962C164.47 68.4962 168.013 66.0831 168.013 62.2325H168.783C168.731 65.313 166.934 67.418 164.316 68.5475C162.981 69.1122 161.698 69.3176 160.106 69.3176C153.38 69.3176 148.708 66.0831 148.708 57.4064C148.708 48.9351 153.175 45.4953 159.695 45.4953C165.754 45.4953 169.296 48.5244 169.296 54.7367V56.7904H154.767ZM154.818 56.0202H163.597V53.6072C163.597 48.7811 162.673 46.1627 159.593 46.1627C156.255 46.1627 154.972 48.8838 154.818 56.0202ZM211.396 58.844H212.217C212.217 62.6433 209.65 69.3176 200.974 69.3176C191.168 69.3176 184.955 62.0785 184.955 51.8102C184.955 41.6447 191.476 34.6623 200.974 34.6623C204.157 34.6623 206.981 35.6378 208.983 37.486C210.472 37.486 211.242 36.9213 211.961 35.0217H212.628C212.371 35.8945 211.653 40.3098 211.653 42.4148V45.598H210.883V43.647C210.883 38.7696 206.775 35.4324 200.974 35.4324C193.221 35.4324 191.681 43.8524 191.681 52.067C191.681 60.795 193.427 68.5475 201.076 68.5475C203.438 68.5475 205.543 67.9314 207.135 66.9046C209.958 65.0563 211.396 61.8218 211.396 58.844ZM214.939 68.9582V68.1881H218.327V32.8653H214.887V32.0952H224.077V51.0915H224.18C224.693 49.7566 226.542 45.4953 232.497 45.4953C237.169 45.4953 239.736 47.4976 239.736 52.529V68.1881H243.176V68.9582H230.957V68.1881H233.986V51.2968C233.986 48.011 233.165 46.7275 230.803 46.7275C225.926 46.7275 224.077 52.4263 224.077 55.0961V68.1881H227.158V68.9582H214.939ZM259.451 65.1076H259.349C258.322 67.1099 255.96 69.3176 252.212 69.3176C248.875 69.3176 245.23 67.8287 245.23 63.5674C245.23 58.0225 252.264 56.2256 258.476 56.2256H258.989V50.8348C258.989 47.857 258.117 46.1627 254.985 46.1627C252.007 46.1627 250.621 47.4462 250.621 50.0646C250.621 51.7589 251.288 53.1965 253.034 52.8884V53.2991C253.034 53.2991 251.904 53.6585 250.672 53.6585C248.259 53.6585 246.462 52.4777 246.462 50.3214C246.462 47.4462 249.44 45.4953 255.087 45.4953C262.07 45.4953 264.74 48.0623 264.74 52.529V65.8264C264.74 67.264 265.048 68.0341 266.074 68.0341C267.666 68.0341 268.333 66.1858 268.333 64.4915H269.104C269.104 67.7774 267.204 69.3176 264.483 69.3176C261.608 69.3176 259.657 67.7774 259.451 65.1076ZM258.989 63.5674V56.9957H258.322C255.96 56.9957 254.471 57.5091 253.393 58.2279C251.904 59.2547 251.237 61.0517 251.237 63.5674C251.237 66.7506 252.212 68.0854 253.958 68.0854C254.831 68.0854 255.703 67.726 256.576 67.1613C257.86 66.2371 258.989 64.6969 258.989 63.5674ZM270.182 68.9582V68.1881H273.57V46.6248H270.182V45.8547H279.218V51.2968H279.32C279.937 49.7566 281.785 45.4953 287.74 45.4953C292.412 45.4953 294.98 47.4976 294.98 52.529V68.1881H298.419V68.9582H286.2V68.1881H289.229V51.2968C289.229 48.011 288.408 46.7275 286.046 46.7275C281.169 46.7275 279.32 52.375 279.32 55.1474V68.1881H282.401V68.9582H270.182ZM307.404 72.6548V73.0655C305.556 72.7575 304.786 73.887 304.786 76.0433C304.786 79.0211 307.096 80.2533 311.922 80.2533C317.108 80.2533 321.78 78.559 321.78 75.0165C321.78 71.936 317.467 71.5253 312.025 71.1146C306.942 70.7038 300.576 70.2931 300.576 64.8509C300.576 61.9758 302.629 60.1789 304.529 58.844C302.835 57.5091 302.013 55.6095 302.013 53.4018C302.013 49.0378 305.248 45.4953 311.871 45.4953C314.9 45.4953 317.364 46.2654 319.007 47.6003C320.137 46.7275 320.599 45.9573 320.599 44.4171C320.599 42.6202 319.88 41.696 317.98 41.7987V41.388C317.98 41.388 318.699 41.0799 319.983 41.0799C323.063 41.0799 324.039 42.5688 324.039 43.9037C324.039 45.906 321.934 46.8302 319.521 48.011C320.907 49.3459 321.626 51.0915 321.626 53.1451C321.626 57.7658 318.032 60.8463 311.614 60.8463C308.893 60.8463 306.737 60.2816 305.145 59.3061C303.81 60.2816 302.732 61.3084 302.732 62.6946C302.732 65.5184 307.507 65.3643 312.846 65.8264C319.264 66.3398 323.679 67.6234 323.679 72.9628C323.679 78.9184 317.98 81.0234 311.922 81.0234C305.556 81.0234 300.935 79.0211 300.935 75.9406C300.935 73.4763 303.554 72.3981 305.71 72.3981C306.685 72.3981 307.404 72.6548 307.404 72.6548ZM311.665 60.1275C314.951 60.1275 315.875 57.7658 315.875 53.1965C315.875 48.7298 315.003 46.2141 311.717 46.2141C308.482 46.2141 307.661 48.7298 307.661 53.2991C307.661 57.7145 308.431 60.1275 311.665 60.1275ZM332.151 56.7904V57.5605C332.151 66.6479 334.307 68.4962 338.055 68.4962C341.854 68.4962 345.397 66.0831 345.397 62.2325H346.167C346.115 65.313 344.318 67.418 341.7 68.5475C340.365 69.1122 339.082 69.3176 337.49 69.3176C330.764 69.3176 326.092 66.0831 326.092 57.4064C326.092 48.9351 330.559 45.4953 337.079 45.4953C343.138 45.4953 346.68 48.5244 346.68 54.7367V56.7904H332.151ZM332.202 56.0202H340.981V53.6072C340.981 48.7811 340.057 46.1627 336.977 46.1627C333.639 46.1627 332.356 48.8838 332.202 56.0202Z" fill="#111111"/>
  </g>
  <defs>
  <clipPath id="clip0_1040_18">
  <rect width="346.68" height="87.6095" fill="white"/>
  </clipPath>
  </defs>
  </svg>
  