<svg
  width="306"
  height="50"
  viewBox="0 0 306 50"
  fill="none"
  xmlns="http://www.w3.org/2000/svg"
>
  <g clip-path="url(#clip0_1021_12)">
    <path
      d="M52.6854 27.8936C52.4113 27.4977 52.1432 27.0956 51.869 26.7057L51.0466 25.5238L50.212 24.3419C49.9317 23.952 49.6576 23.556 49.3712 23.1661L48.5183 22.0025L47.6532 20.845C47.3669 20.4612 47.0684 20.0834 46.776 19.6996C46.4835 19.3158 46.185 18.9442 45.8865 18.5604L45.6184 18.2131L45.2103 18.2192C44.4426 18.2314 43.675 18.2619 42.9074 18.2801L40.6046 18.3411L38.3017 18.3898L35.9989 18.4325L35.347 18.4446L35.3592 19.0721L35.4323 23.0747L35.5176 27.0773L35.6089 31.0799L35.7003 34.7961L32.0755 34.8875L28.146 34.9972V35.1677L32.0755 35.2774L36.0049 35.3749L36.2913 35.381L36.2974 35.0764L36.3948 31.0738L36.4862 27.0712L36.5715 23.0686L36.6324 19.7179L38.3078 19.7484L40.6106 19.7971L42.9135 19.858C43.5349 19.8763 44.1563 19.8946 44.7777 19.9068C44.9788 20.187 45.1798 20.4673 45.3869 20.7475C45.6733 21.1313 45.9535 21.5212 46.2459 21.905L47.1171 23.0564L48.0066 24.1957C48.299 24.5734 48.6036 24.9511 48.9021 25.3288L49.8038 26.4559L50.7176 27.5769C50.9796 27.8997 51.2537 28.2226 51.5157 28.5455L51.5523 29.2461L51.6071 30.2026C51.6436 30.8362 51.6924 31.4759 51.735 32.1095C51.7777 32.743 51.8386 33.3827 51.8873 34.0163L51.9787 34.9728L52.0274 35.448L52.0823 35.9232H52.2529L52.3077 35.448L52.3564 34.9728L52.4478 34.0163C52.4965 33.3827 52.5575 32.743 52.6001 32.1095C52.6428 31.4759 52.6915 30.8362 52.728 30.2026L52.7829 29.2461L52.8316 28.2896L52.8438 28.1008L52.6854 27.8936Z"
      fill="#111111"
    />
    <path
      d="M22.5168 29.7275L25.6969 29.6848L32.0633 29.6056L32.7822 29.5995L32.7761 28.8989L32.642 15.6362L37.8874 15.5814L38.3992 15.5753L38.3931 15.0696L38.3626 11.8956L38.3565 11.4143L37.8813 11.4204L30.4793 11.4996H30.3514L30.2539 11.5666L25.837 14.6675L16.9546 14.7833L7.91377 14.9112L7.88941 14.96C7.56652 15.5997 7.23754 16.2332 6.92684 16.879C6.61004 17.5187 6.28716 18.1584 5.97645 18.8042L5.02607 20.7293L4.10005 22.6666C3.78935 23.3124 3.47865 23.9521 3.17404 24.6039L2.26021 26.5413C1.9556 27.187 1.6449 27.8328 1.34638 28.4847L0.444731 30.4281L0 31.3907L1.0966 31.415L3.74061 31.4698L3.94775 31.4759L4.14879 31.3541L6.83545 29.7153C7.82239 29.7275 8.80933 29.7518 9.79627 29.7518L11.3863 29.764L12.9764 29.7762L16.1565 29.7823L19.3367 29.764L22.5168 29.7275ZM12.9703 28.0156L11.3802 28.0278L9.79017 28.0399C8.73013 28.046 7.67009 28.0704 6.61004 28.0826L6.36026 28.0887L6.1714 28.2105L3.50302 29.9529L2.15664 29.9833L2.55873 29.0086C2.83288 28.3506 3.09484 27.6805 3.3629 27.0225L4.16707 25.0365C4.43513 24.3724 4.69709 23.7084 4.95905 23.0443L5.75104 21.0522L6.53084 19.0539C6.79281 18.3899 7.04259 17.7197 7.29846 17.0496C7.54824 16.3977 7.78584 15.7459 8.02953 15.0879L16.9607 15.2158L25.9528 15.3316H26.0503L26.1356 15.2707L30.6011 12.3038L37.4061 12.3769L37.3818 14.564L32.0694 14.5091L31.5089 14.5031L31.5028 15.0757L31.3688 28.1861L25.703 28.1191L22.5229 28.0765L19.3428 28.0399L16.1626 28.0217L12.9703 28.0156Z"
      fill="#111111"
    />
    <path
      d="M15.529 35.503C15.5168 35.4421 15.5047 35.3751 15.4925 35.3141L15.4437 35.1253C15.4072 35.0034 15.3767 34.8755 15.3341 34.7537C15.2853 34.6318 15.2427 34.5161 15.194 34.4003L15.1574 34.315L15.1148 34.2297L15.0295 34.0592C14.9746 33.9495 14.9198 33.8337 14.8528 33.7302C14.7858 33.6266 14.7188 33.523 14.6578 33.4195C14.5908 33.3159 14.5055 33.2184 14.4324 33.1209C14.274 32.9077 14.1217 32.7737 13.9755 32.6153L13.9024 32.5422L13.8354 32.4874L13.7014 32.3777C13.61 32.3046 13.5308 32.2254 13.4333 32.1645C12.6962 31.6284 11.8676 31.342 11.1061 31.2446C10.9111 31.2263 10.7284 31.208 10.5456 31.2019C10.3628 31.208 10.1862 31.2019 10.0095 31.2202C9.9242 31.2324 9.83891 31.2385 9.75362 31.2446C9.66833 31.2567 9.58913 31.2628 9.50993 31.2811C9.35154 31.3177 9.19314 31.342 9.04693 31.3786C8.44989 31.5248 7.9747 31.7624 7.59698 31.9756C7.5056 32.0304 7.41421 32.0853 7.33502 32.134C7.25582 32.1828 7.18271 32.2437 7.1096 32.2924C7.04259 32.3411 6.97558 32.3899 6.92075 32.4325C6.85982 32.4752 6.81718 32.5178 6.77453 32.5544C6.60395 32.7067 6.50648 32.7859 6.50648 32.7859H6.50038C6.50038 32.7859 6.41509 32.8773 6.2506 33.0418C6.20796 33.0844 6.15922 33.127 6.11657 33.1819C6.06784 33.2367 6.0191 33.2976 5.96427 33.3646C5.90944 33.4317 5.84852 33.4987 5.79369 33.5779C5.73886 33.6571 5.67794 33.7424 5.61701 33.8337C5.37333 34.2054 5.09918 34.6745 4.89813 35.2837C4.69709 35.8868 4.55697 36.624 4.61789 37.4525C4.66054 37.8607 4.73364 38.2993 4.89204 38.7258C4.92859 38.8354 4.97124 38.9451 5.01389 39.0487C5.06262 39.1522 5.11745 39.2558 5.16619 39.3655C5.19056 39.4203 5.22102 39.469 5.24539 39.5239C5.27585 39.5787 5.3124 39.6335 5.34896 39.6823C5.42206 39.7919 5.49517 39.9016 5.56828 40.0051C5.61092 40.0661 5.64138 40.1026 5.67184 40.1392L5.77541 40.261L5.87898 40.3829L5.92772 40.4438C5.90335 40.4194 5.97036 40.4864 5.96427 40.4803L5.97036 40.4864L5.98864 40.5047L6.02519 40.5352C6.20796 40.7057 6.38463 40.8946 6.59786 41.0469C6.99994 41.3759 7.47514 41.6257 7.98079 41.8267C8.10873 41.8694 8.23666 41.912 8.3646 41.9546C8.49254 41.9973 8.62656 42.0217 8.76059 42.0521L8.96164 42.0948C9.02865 42.107 9.09566 42.113 9.16877 42.1191C9.3028 42.1313 9.44292 42.1557 9.58304 42.1618C10.1374 42.1983 10.6979 42.1313 11.2401 42.0095C11.7823 41.8754 12.3063 41.6561 12.7936 41.382L13.147 41.1566L13.2323 41.1017L13.3237 41.0347L13.5003 40.9007L13.677 40.7606C13.7075 40.7362 13.7318 40.7179 13.7501 40.6936L13.8171 40.6326L14.0791 40.3768C14.1339 40.328 14.0974 40.3585 14.1095 40.3402L14.1156 40.328L14.1339 40.3098L14.1705 40.2732L14.2375 40.194L14.3715 40.0356C14.4629 39.932 14.5421 39.8163 14.6213 39.7066L14.737 39.536L14.798 39.4508L14.8467 39.3594L15.0477 38.9999C15.2853 38.5065 15.462 37.9825 15.5595 37.4525C15.6448 36.9225 15.6631 36.3864 15.6021 35.8624C15.5778 35.7589 15.5473 35.6309 15.529 35.503ZM14.3837 37.2454C14.2862 37.6596 14.1217 38.0556 13.9146 38.4273L13.744 38.6953L13.7014 38.7623L13.6526 38.8233L13.5552 38.9512C13.4881 39.0365 13.4272 39.1218 13.348 39.1949L13.2384 39.3106L13.1835 39.3655L13.1531 39.3959L13.1409 39.4081L12.8728 39.6335L12.7997 39.6944C12.7754 39.7127 12.751 39.7371 12.7327 39.7432L12.6109 39.8224L12.489 39.9016L12.4281 39.9442L12.3611 39.9808L12.0869 40.127C11.7092 40.2976 11.3132 40.4194 10.9111 40.4803C10.5091 40.5291 10.107 40.5352 9.71707 40.4864C9.61959 40.4742 9.52212 40.4499 9.43073 40.4377L9.29061 40.4133L9.15049 40.3768C9.05911 40.3524 8.96163 40.3341 8.87634 40.2976C8.78496 40.2671 8.69967 40.2306 8.60829 40.2001C8.26103 40.0539 7.92596 39.8894 7.63353 39.6762C7.48123 39.5787 7.3472 39.4568 7.20708 39.3411L7.18271 39.3167L7.17053 39.3045L7.16443 39.2984C7.15834 39.2924 7.21317 39.3533 7.1888 39.3228L7.13397 39.268L7.01822 39.1522L6.90856 39.0365C6.87201 38.9999 6.82936 38.9573 6.81109 38.9329C6.76235 38.872 6.70752 38.8111 6.65878 38.7562C6.63441 38.7258 6.60395 38.7014 6.57958 38.6649C6.55521 38.6283 6.53084 38.5918 6.50648 38.5613C6.45165 38.4943 6.40291 38.4212 6.35417 38.3542C6.31153 38.281 6.26279 38.2079 6.22014 38.1348C6.12267 37.9947 6.05565 37.8363 5.97645 37.6901C5.93381 37.617 5.90944 37.5378 5.87898 37.4647C5.84852 37.3855 5.81806 37.3124 5.7876 37.2332C5.56218 36.6179 5.49517 35.9843 5.53172 35.4238C5.56218 34.8572 5.72667 34.3759 5.90335 33.9982C5.95208 33.9068 5.98864 33.8155 6.03128 33.7302C6.07393 33.651 6.12876 33.5779 6.1714 33.5109C6.21405 33.4438 6.2567 33.3768 6.29325 33.322C6.3298 33.2672 6.37854 33.2184 6.409 33.1758C6.55521 33.0052 6.62832 32.9138 6.62832 32.9077C6.6405 32.8955 6.73189 32.8102 6.88419 32.6701C6.92684 32.6336 6.96948 32.5848 7.02431 32.5422C7.07914 32.4995 7.14007 32.4569 7.20708 32.4082C7.27409 32.3594 7.34111 32.3046 7.42031 32.2559C7.49951 32.2071 7.5848 32.1584 7.67618 32.1036C8.04171 31.9025 8.523 31.6954 9.10176 31.6101C9.68051 31.5248 10.3446 31.537 11.0208 31.7319C11.1061 31.7563 11.1853 31.7868 11.2706 31.8172C11.3559 31.8477 11.4412 31.872 11.5204 31.9086C11.6849 31.9817 11.8554 32.0487 12.0138 32.1401C12.093 32.1828 12.1783 32.2254 12.2575 32.2741C12.3367 32.329 12.4098 32.3777 12.489 32.4325L12.6048 32.5117C12.6413 32.5361 12.6779 32.5727 12.7144 32.6031C12.7875 32.664 12.8606 32.725 12.9398 32.7859C13.013 32.8468 13.08 32.9199 13.147 32.9869L13.2505 33.0905L13.2993 33.1392L13.3054 33.1453L13.3176 33.1636L13.3419 33.1941C13.476 33.3585 13.6404 33.5291 13.7257 33.6875C13.7745 33.7667 13.8354 33.8398 13.8841 33.9312C13.9329 34.0226 13.9816 34.1079 14.0303 34.1993C14.0852 34.2846 14.1156 34.382 14.1583 34.4795L14.2192 34.6196L14.2497 34.6927L14.274 34.7658C14.3045 34.8633 14.335 34.9608 14.3654 35.0644C14.3959 35.1618 14.4081 35.2654 14.4324 35.369L14.4629 35.5213L14.4812 35.6797C14.4873 35.7832 14.5055 35.8868 14.5116 35.9904C14.5116 36.4107 14.469 36.8311 14.3837 37.2454Z"
      fill="#111111"
    />
    <path
      d="M27.3969 34.0163C27.3603 33.9066 27.3177 33.797 27.275 33.6934C27.2263 33.5898 27.1715 33.4863 27.1227 33.3766C27.0984 33.3218 27.0679 33.273 27.0435 33.2182C27.0131 33.1634 26.9765 33.1085 26.94 33.0598C26.8669 32.9501 26.7937 32.8405 26.7206 32.7369C26.678 32.676 26.6475 32.6394 26.6171 32.6029L26.5135 32.481L26.4099 32.3592L26.3612 32.2983C26.3856 32.3226 26.3186 32.2556 26.3246 32.2617L26.3186 32.2556L26.3003 32.2374L26.2637 32.2069C26.081 32.0363 25.9043 31.8475 25.6911 31.6951C25.289 31.3662 24.8138 31.1164 24.3081 30.9153C24.1802 30.8727 24.0523 30.8301 23.9243 30.7874C23.7964 30.7448 23.6624 30.7204 23.5283 30.6899L23.3273 30.6473C23.2603 30.6351 23.1932 30.629 23.1201 30.6229C22.9861 30.6107 22.846 30.5864 22.7059 30.5803C22.1515 30.5437 21.591 30.6107 21.0488 30.7326C20.5066 30.8666 19.9827 31.0859 19.4953 31.3601L19.1419 31.5855L19.0566 31.6403L18.9774 31.683L18.8008 31.817L18.6241 31.9571C18.5936 31.9815 18.5693 31.9998 18.551 32.0241L18.484 32.085L18.222 32.3409C18.1672 32.3897 18.2037 32.3592 18.1915 32.3775L18.1855 32.3897L18.1672 32.4079L18.1306 32.4445L18.0636 32.5237L17.9296 32.6821C17.8382 32.7857 17.759 32.9014 17.6798 33.0111L17.5641 33.1816L17.5031 33.2669L17.4544 33.3583L17.2534 33.7178C17.0158 34.2112 16.8391 34.7352 16.7416 35.2652C16.6563 35.7952 16.638 36.3313 16.699 36.8552C16.7111 36.9832 16.7416 37.1111 16.7599 37.2391C16.7721 37.3 16.7843 37.367 16.7964 37.4279L16.8452 37.6168C16.8817 37.7386 16.9122 37.8666 16.9548 37.9884C17.0036 38.1102 17.0462 38.226 17.095 38.3417L17.1315 38.427L17.1742 38.5123L17.2594 38.6829C17.3143 38.7926 17.3691 38.9083 17.4361 39.0119C17.5031 39.1155 17.5701 39.219 17.6311 39.3226C17.6981 39.4262 17.7834 39.5236 17.8565 39.6211C18.0149 39.8343 18.1672 39.9684 18.3134 40.1268L18.3865 40.1999L18.4535 40.2547L18.5875 40.3644C18.6789 40.4375 18.7581 40.5167 18.8556 40.5776C19.5928 41.1137 20.4213 41.4 21.1828 41.4975C21.3778 41.5158 21.5605 41.5341 21.7433 41.5401C21.9261 41.5341 22.1027 41.5402 22.2794 41.5219C22.3647 41.5097 22.45 41.5036 22.5353 41.4975C22.6206 41.4853 22.6998 41.4792 22.779 41.461C22.9374 41.4244 23.0958 41.4 23.242 41.3635C23.839 41.2173 24.3142 40.9797 24.6919 40.7664C24.7833 40.7116 24.8747 40.6568 24.9539 40.608C25.0331 40.5593 25.1062 40.4984 25.1793 40.4496C25.2463 40.4009 25.3133 40.3522 25.3682 40.3095C25.4291 40.2669 25.4717 40.2242 25.5144 40.1877C25.685 40.0354 25.7824 39.9562 25.7824 39.9562H25.7885C25.7885 39.9562 25.8738 39.8648 26.0383 39.7003C26.081 39.6577 26.1297 39.615 26.1723 39.5602C26.2211 39.5054 26.2698 39.4444 26.3246 39.3774C26.3795 39.3104 26.4404 39.2434 26.4952 39.1642C26.5501 39.085 26.611 38.9997 26.6719 38.9083C26.9156 38.5367 27.1897 38.0676 27.3908 37.4584C27.5918 36.8552 27.7319 36.1181 27.671 35.2895C27.6284 34.8814 27.5614 34.4427 27.3969 34.0163ZM26.7755 37.3304C26.745 37.897 26.5805 38.3783 26.4038 38.756C26.3551 38.8474 26.3186 38.9388 26.2759 39.0241C26.2333 39.1033 26.1784 39.1764 26.1358 39.2434C26.0931 39.3104 26.0505 39.3774 26.0139 39.4322C25.9774 39.4871 25.9287 39.5358 25.8982 39.5785C25.752 39.749 25.6789 39.8404 25.6789 39.8465C25.6667 39.8587 25.5753 39.944 25.423 40.0841C25.3804 40.1207 25.3377 40.1694 25.2829 40.212C25.228 40.2547 25.1671 40.2973 25.1001 40.3461C25.0331 40.3948 24.9661 40.4496 24.8869 40.4984C24.8077 40.5471 24.7224 40.5959 24.631 40.6507C24.2655 40.8517 23.7842 41.0589 23.2054 41.1442C22.6267 41.2294 21.9626 41.2173 21.2864 41.0223C21.2011 40.9979 21.1219 40.9675 21.0366 40.937C20.9513 40.9066 20.866 40.8822 20.7868 40.8456C20.6223 40.7725 20.4518 40.7055 20.2934 40.6141C20.2142 40.5715 20.1289 40.5288 20.0497 40.4801C19.9705 40.4253 19.8974 40.3765 19.8182 40.3217L19.7024 40.2425C19.6659 40.2181 19.6293 40.1816 19.5928 40.1511C19.5197 40.0902 19.4465 40.0293 19.3673 39.9684C19.2942 39.9074 19.2272 39.8343 19.1602 39.7673L19.0566 39.6638L19.0079 39.615L19.0018 39.6089L18.9896 39.5906L18.9653 39.5602C18.8312 39.3957 18.6667 39.2251 18.5815 39.0667C18.5327 38.9875 18.4718 38.9144 18.4231 38.823C18.3743 38.7316 18.3256 38.6464 18.2768 38.555C18.222 38.4697 18.1915 38.3722 18.1489 38.2747L18.088 38.1346L18.0575 38.0615L18.0332 37.9884C18.0027 37.8909 17.9722 37.7934 17.9418 37.6899C17.9113 37.5924 17.8991 37.4888 17.8748 37.3853L17.8443 37.233L17.826 37.0746C17.8199 36.971 17.8016 36.8674 17.7956 36.7639C17.7773 36.3435 17.8199 35.917 17.9113 35.5028C18.0088 35.0885 18.1733 34.6925 18.3804 34.3209L18.551 34.0528L18.5936 33.9858L18.6424 33.9249L18.7398 33.797C18.8069 33.7117 18.8678 33.6264 18.947 33.5533L19.0566 33.4375L19.1115 33.3827L19.1419 33.3522L19.1541 33.34L19.4222 33.1146L19.4953 33.0537C19.5197 33.0354 19.544 33.0111 19.5623 33.005L19.6841 32.9258L19.806 32.8466L19.8669 32.8039L19.9339 32.7674L20.2081 32.6212C20.5858 32.4506 20.9818 32.3287 21.3839 32.2678C21.786 32.2191 22.188 32.213 22.5779 32.2617C22.6754 32.2739 22.7729 32.2983 22.8643 32.3105L23.0044 32.3348L23.1445 32.3714C23.2359 32.3957 23.3334 32.414 23.4187 32.4506C23.51 32.481 23.5953 32.5176 23.6867 32.5481C24.034 32.6943 24.369 32.8588 24.6615 33.072C24.8138 33.1695 24.9478 33.2913 25.0879 33.4071L25.1123 33.4314L25.1245 33.4436L25.1306 33.4497C25.1367 33.4558 25.0818 33.3949 25.1062 33.4253L25.161 33.4802L25.2768 33.5959L25.3864 33.7117C25.423 33.7482 25.4656 33.7909 25.4839 33.8152C25.5327 33.8762 25.5875 33.9371 25.6362 33.9919C25.6606 34.0224 25.6911 34.0467 25.7154 34.0833C25.7398 34.1198 25.7642 34.1564 25.7885 34.1869C25.8434 34.2539 25.8921 34.327 25.9408 34.394C25.9835 34.4671 26.0322 34.5402 26.0749 34.6133C26.1723 34.7534 26.2394 34.9118 26.3186 35.058C26.3612 35.1312 26.3856 35.2103 26.416 35.2835C26.4465 35.3627 26.4769 35.4358 26.5074 35.515C26.7389 36.1364 26.812 36.7639 26.7755 37.3304Z"
      fill="#111111"
    />
    <path
      d="M49.8343 34.0163C49.7978 33.9066 49.7552 33.797 49.7125 33.6934C49.6638 33.5898 49.6089 33.4863 49.5602 33.3766C49.5358 33.3218 49.5054 33.273 49.481 33.2182C49.4505 33.1634 49.414 33.1085 49.3774 33.0598C49.3043 32.9501 49.2312 32.8405 49.1581 32.7369C49.1155 32.676 49.085 32.6394 49.0545 32.6029L48.951 32.481L48.8474 32.3592L48.7987 32.2983C48.823 32.3226 48.756 32.2556 48.7621 32.2617L48.756 32.2556L48.7378 32.2374L48.7012 32.2069C48.5184 32.0363 48.3418 31.8475 48.1285 31.6951C47.7264 31.3662 47.2513 31.1164 46.7456 30.9153C46.6177 30.8727 46.4897 30.8301 46.3618 30.7874C46.2339 30.7448 46.0998 30.7204 45.9658 30.6899L45.7648 30.6473C45.6977 30.6351 45.6307 30.629 45.5576 30.6229C45.4236 30.6107 45.2835 30.5864 45.1434 30.5803C44.589 30.5437 44.0285 30.6107 43.4863 30.7326C42.9441 30.8666 42.4201 31.0859 41.9328 31.3601L41.5794 31.5855L41.4941 31.6403L41.4027 31.7073L41.2261 31.8414L41.0494 31.9815C41.0189 32.0059 40.9946 32.0241 40.9763 32.0485L40.9093 32.1094L40.6473 32.3653C40.5925 32.414 40.629 32.3836 40.6168 32.4018L40.6107 32.414L40.5925 32.4323L40.5559 32.4689L40.4889 32.5481L40.3549 32.7065C40.2635 32.81 40.1843 32.9258 40.1051 33.0354L39.9893 33.206L39.9284 33.2913L39.8797 33.3827L39.6786 33.7421C39.441 34.2356 39.2644 34.7595 39.1669 35.2895C39.0816 35.8196 39.0633 36.3557 39.1243 36.8796C39.1364 37.0075 39.1669 37.1355 39.1852 37.2634C39.1974 37.3243 39.2095 37.3914 39.2217 37.4523L39.2705 37.6411C39.307 37.763 39.3375 37.8909 39.3801 38.0128C39.4289 38.1346 39.4715 38.2504 39.5202 38.3661L39.5568 38.4514L39.5994 38.5367L39.6847 38.7073C39.7396 38.8169 39.7944 38.9327 39.8614 39.0363C39.9284 39.1398 39.9954 39.2434 40.0564 39.347C40.1234 39.4505 40.2087 39.548 40.2818 39.6455C40.4402 39.8587 40.5925 39.9927 40.7387 40.1511L40.8118 40.2242L40.8788 40.2791L41.0128 40.3887C41.1042 40.4618 41.1834 40.541 41.2809 40.602C42.018 41.1381 42.8466 41.4244 43.6081 41.5219C43.8031 41.5402 43.9858 41.5584 44.1686 41.5645C44.3514 41.5584 44.528 41.5645 44.7047 41.5462C44.79 41.5341 44.8753 41.528 44.9606 41.5219C45.0459 41.5097 45.1251 41.5036 45.2043 41.4853C45.3627 41.4488 45.5211 41.4244 45.6673 41.3878C46.2643 41.2416 46.7395 41.004 47.1172 40.7908C47.2086 40.736 47.3 40.6812 47.3792 40.6324C47.4584 40.5837 47.5315 40.5228 47.6046 40.474C47.6716 40.4253 47.7386 40.3765 47.7935 40.3339C47.8544 40.2912 47.897 40.2486 47.9397 40.212C48.1103 40.0597 48.2077 39.9805 48.2077 39.9805H48.2138C48.2138 39.9805 48.2991 39.8892 48.4636 39.7247C48.5062 39.682 48.555 39.6394 48.5976 39.5846C48.6464 39.5297 48.6951 39.4688 48.7499 39.4018C48.8048 39.3348 48.8657 39.2678 48.9205 39.1886C48.9753 39.1094 49.0363 39.0241 49.0972 38.9327C49.3409 38.5611 49.615 38.092 49.8161 37.4827C50.0171 36.8796 50.1572 36.1425 50.0963 35.3139C50.0659 34.8814 49.9988 34.4427 49.8343 34.0163ZM49.2129 37.3304C49.1825 37.897 49.018 38.3783 48.8413 38.756C48.7926 38.8474 48.756 38.9388 48.7134 39.0241C48.6707 39.1033 48.6159 39.1764 48.5733 39.2434C48.5306 39.3104 48.488 39.3774 48.4514 39.4322C48.4149 39.4871 48.3661 39.5358 48.3357 39.5785C48.1895 39.749 48.1163 39.8404 48.1163 39.8465C48.1042 39.8587 48.0128 39.944 47.8605 40.0841C47.8178 40.1207 47.7752 40.1694 47.7204 40.212C47.6655 40.2547 47.6046 40.2973 47.5376 40.3461C47.4706 40.3948 47.4036 40.4496 47.3244 40.4984C47.2452 40.5471 47.1599 40.5959 47.0685 40.6507C46.703 40.8517 46.2217 41.0589 45.6429 41.1442C45.0642 41.2294 44.4001 41.2173 43.7239 41.0223C43.6386 40.9979 43.5594 40.9675 43.4741 40.937C43.3888 40.9066 43.3035 40.8822 43.2243 40.8456C43.0598 40.7725 42.8892 40.7055 42.7308 40.6141C42.6516 40.5715 42.5663 40.5288 42.4872 40.4801C42.408 40.4253 42.3348 40.3765 42.2556 40.3217L42.1399 40.2425C42.1033 40.2181 42.0668 40.1816 42.0302 40.1511C41.9571 40.0902 41.884 40.0293 41.8048 39.9684C41.7317 39.9074 41.6647 39.8343 41.5977 39.7673L41.4941 39.6638L41.4454 39.615L41.4393 39.6089L41.4271 39.5906L41.4027 39.5602C41.2687 39.3957 41.1042 39.2251 41.0189 39.0667C40.9702 38.9875 40.9093 38.9144 40.8605 38.823C40.8118 38.7316 40.7631 38.6464 40.7143 38.555C40.6595 38.4697 40.629 38.3722 40.5864 38.2747L40.5255 38.1346L40.495 38.0615L40.4706 37.9884C40.4402 37.8909 40.4097 37.7934 40.3792 37.6899C40.3488 37.5924 40.3366 37.4888 40.3122 37.3853L40.2818 37.233L40.2635 37.0746C40.2574 36.971 40.2391 36.8674 40.233 36.7639C40.2148 36.3435 40.2574 35.917 40.3488 35.5028C40.4463 35.0885 40.6107 34.6925 40.8179 34.3209L40.9885 34.0528L41.0311 33.9858L41.0798 33.9249L41.1773 33.797C41.2443 33.7117 41.3053 33.6264 41.3845 33.5533L41.4941 33.4375L41.5489 33.3827L41.5794 33.3522L41.5916 33.34L41.8597 33.1146L41.9328 33.0537C41.9571 33.0354 41.9815 33.0111 41.9998 33.005L42.1216 32.9258L42.2435 32.8466L42.3044 32.8039L42.3714 32.7674L42.6455 32.6212C43.0233 32.4506 43.4193 32.3287 43.8213 32.2678C44.2234 32.2191 44.6255 32.213 45.0154 32.2617C45.1129 32.2739 45.2104 32.2983 45.3017 32.3105L45.4419 32.3348L45.582 32.3714C45.6734 32.3957 45.7708 32.414 45.8561 32.4506C45.9475 32.481 46.0328 32.5176 46.1242 32.5481C46.4714 32.6943 46.8065 32.8588 47.0989 33.072C47.2513 33.1695 47.3853 33.2913 47.5254 33.4071L47.5498 33.4314L47.562 33.4436L47.568 33.4497C47.5741 33.4558 47.5193 33.3949 47.5437 33.4253L47.5985 33.4802L47.7143 33.5959L47.8239 33.7117C47.8605 33.7482 47.9031 33.7909 47.9214 33.8152C47.9701 33.8762 48.025 33.9371 48.0737 33.9919C48.0981 34.0224 48.1285 34.0467 48.1529 34.0833C48.1773 34.1198 48.2016 34.1564 48.226 34.1869C48.2808 34.2539 48.3296 34.327 48.3783 34.394C48.421 34.4671 48.4697 34.5402 48.5123 34.6133C48.6098 34.7534 48.6768 34.9118 48.756 35.058C48.7987 35.1312 48.823 35.2103 48.8535 35.2835C48.884 35.3627 48.9144 35.4358 48.9449 35.515C49.1764 36.1364 49.2434 36.7639 49.2129 37.3304Z"
      fill="#111111"
    />
    <path
      d="M82.8728 28.2124C82.8728 29.8963 82.826 32.7028 85.3987 32.7028C86.6616 32.7028 87.4568 32.1883 88.3455 31.5334V37.24C87.2697 37.8481 85.96 38.4094 84.5567 38.4094C78.6163 38.4094 75.9501 35.8835 75.9501 28.2124V20.6348H73.3774V14.9283H75.9501V8.28618H82.8728V14.9283H88.3455V20.6348H82.8728V28.2124ZM99.4492 14.9283V38.0352H92.5265V14.9283H99.4492ZM99.6363 8.28618C99.6363 10.2507 98.046 11.7943 95.9411 11.7943C93.9298 11.7943 92.2926 10.2507 92.2926 8.28618C92.2926 6.3684 93.9298 4.87159 95.9411 4.87159C98.046 4.87159 99.6363 6.3684 99.6363 8.28618ZM118.552 15.2557L117.616 20.4477C115.885 19.6993 115.558 19.8397 114.763 19.8397C111.956 19.8397 110.319 21.3365 110.319 25.0317V38.0352H103.396V14.9283H110.319V16.9864C111.208 15.396 113.64 14.6008 115.184 14.6008C116.634 14.6008 117.476 14.6476 118.552 15.2557ZM142.472 26.5285V28.0721H126.007C126.007 30.785 128.767 32.7028 131.059 32.7028C133.304 32.7028 135.362 31.8141 136.438 29.8495L141.068 34.1061C139.197 36.6319 136.344 38.4094 131.059 38.4094C123.481 38.4094 118.85 33.3577 118.85 26.5285C118.85 19.6993 123.341 14.6008 130.638 14.6008C137.934 14.6008 142.472 19.6058 142.472 26.5285ZM126.147 23.6752H135.222C134.847 21.4768 133.257 20.3074 130.638 20.3074C128.112 20.3074 126.568 21.6639 126.147 23.6752ZM173.894 29.756L178.759 34.1529C176.139 37.0529 172.725 38.4094 169.076 38.4094C162.34 38.4094 156.915 33.3577 156.915 26.5285C156.915 19.6993 162.34 14.6008 169.076 14.6008C172.725 14.6008 176.139 15.9573 178.759 18.8574L173.894 23.2542C172.865 20.8687 170.62 20.3074 169.076 20.3074C166.223 20.3074 163.837 22.8333 163.837 26.5285C163.837 30.177 166.223 32.7028 169.076 32.7028C170.62 32.7028 172.912 32.2818 173.894 29.756ZM203.661 24.8446V38.0352H196.738V24.8446C196.738 21.2897 195.803 19.7929 193.09 19.7929C190.283 19.7929 188.646 21.2897 188.646 24.8446V38.0352H181.723V4.07642H188.646V17.5009C189.535 14.9283 192.903 14.6008 194.914 14.6008C201.369 14.6008 203.661 17.7348 203.661 24.8446ZM229.078 24.8446V38.0352H222.155V24.8446C222.155 21.3365 221.22 19.7929 218.507 19.7929C215.7 19.7929 214.063 21.3365 214.063 24.8446V38.0352H207.14V14.9283H214.063V17.1267C215.841 15.396 218.273 14.6008 220.284 14.6008C226.786 14.6008 229.078 17.7348 229.078 24.8446ZM237.983 21.7574L232.838 18.8106C235.411 15.9105 238.872 14.5541 242.474 14.5541C249.396 14.5541 252.203 18.3428 252.203 21.8978V38.0352H245.28V36.3981C244.204 37.5207 242.287 38.3626 240.135 38.3626C233.82 38.3626 231.388 35.5561 231.388 31.2528C231.388 26.3882 235.317 23.1139 241.678 23.1139H245.28C245.28 21.3832 243.97 20.2606 242.006 20.2606C239.995 20.2606 239.012 20.6348 237.983 21.7574ZM245.28 30.4108V28.3527H241.211C239.386 28.3527 238.03 29.6157 238.311 31.3931C238.498 32.6561 239.62 33.1706 241.211 33.1706C244.251 33.1706 245.28 31.4399 245.28 30.4108ZM272.007 14.9283H278.93V37.3336C278.93 44.1627 273.925 49.6822 266.721 49.6822C262.745 49.6822 259.752 47.858 257.132 44.9579L262.044 40.5143C263.494 42.6659 264.803 43.9756 266.721 43.9756C269.995 43.9756 271.96 40.374 271.96 36.4448C271.118 37.5674 268.639 38.3626 267.189 38.3626C260.453 38.3626 255.495 33.3109 255.495 26.4817C255.495 19.6526 260.453 14.5541 267.189 14.5541C268.779 14.5541 271.258 15.396 272.007 16.4718V14.9283ZM267.657 33.1706C270.791 33.1706 272.942 29.5689 272.942 26.4817C272.942 23.3478 270.837 19.7929 267.657 19.7929C264.803 19.7929 262.418 22.7865 262.418 26.4817C262.418 30.1302 264.803 33.1706 267.657 33.1706ZM305.89 26.5285V28.0721H289.425C289.425 30.785 292.185 32.7028 294.477 32.7028C296.722 32.7028 298.78 31.8141 299.856 29.8495L304.487 34.1061C302.616 36.6319 299.762 38.4094 294.477 38.4094C286.899 38.4094 282.269 33.3577 282.269 26.5285C282.269 19.6993 286.759 14.6008 294.056 14.6008C301.353 14.6008 305.89 19.6058 305.89 26.5285ZM289.566 23.6752H298.64C298.266 21.4768 296.675 20.3074 294.056 20.3074C291.53 20.3074 289.986 21.6639 289.566 23.6752Z"
      fill="#111111"
    />
  </g>
  <defs>
    <clipPath id="clip0_1021_12">
      <rect width="305.89" height="49.6823" fill="white" />
    </clipPath>
  </defs>
</svg>
