<svg width="347" height="88" viewBox="0 0 347 88" fill="none" xmlns="http://www.w3.org/2000/svg">
<g clip-path="url(#clip0_1040_18)">
<path d="M39.7414 17.7937C39.5369 17.7937 39.3344 17.8398 39.1571 17.9417L9.92097 34.8393C9.57538 35.0368 9.36523 35.4062 9.36523 35.8041V69.5964C9.36523 69.9937 9.57678 70.3616 9.92097 70.5606L39.1571 87.4588C39.5027 87.6599 39.9278 87.6599 40.272 87.4588L69.5088 70.5606C69.8544 70.363 70.0646 69.9937 70.0646 69.5964V35.8041C70.0646 35.4069 69.853 35.0389 69.5088 34.84L40.272 17.9417C40.1101 17.8503 39.9264 17.7972 39.7414 17.7937ZM39.7058 20.1926L67.8263 36.445V68.9541L39.7058 85.2065L11.5854 68.9541V36.445L39.7058 20.1926ZM27.9153 37.3896C27.3107 37.3896 26.9135 37.4245 26.9135 37.4245L31.263 41.0487L30.4545 44.4843L27.4092 45.7913L22.8606 42.9421C22.8606 42.9421 24.5425 47.286 26.3752 48.7152C26.8772 49.1068 28.4731 49.3896 31.8215 48.6733L36.3686 53.2665L27.0629 62.6616C25.9221 62.538 24.7862 62.9402 23.9735 63.7493C22.4899 65.2329 22.4899 67.6381 23.9735 69.121C25.4564 70.6045 27.8616 70.6045 29.3445 69.121C30.1641 68.302 30.5655 67.1522 30.4329 66.0009L39.7051 56.6358L48.976 66.0009C48.8419 67.1522 49.2441 68.302 50.0637 69.121C51.5473 70.6045 53.9518 70.6045 55.4354 69.121C56.9182 67.6381 56.9182 65.2329 55.4354 63.7493C54.6227 62.9388 53.4868 62.5387 52.3453 62.6616L43.0402 53.2665L47.5873 48.6733C50.935 49.3896 52.531 49.1075 53.033 48.7152C54.8664 47.286 56.5475 42.9421 56.5475 42.9421L51.999 45.7913L48.9543 44.4843L48.1459 41.0487L52.4954 37.4245C52.4954 37.4245 46.1422 37.0824 45.5627 38.6945C44.1852 42.5295 44.4303 45.1259 44.4303 45.1259L39.7044 49.8978L34.9786 45.1259C34.9786 45.1259 35.225 42.5295 33.8455 38.6945C33.4112 37.4846 29.7291 37.375 27.9153 37.3959V37.3896ZM26.6105 64.9166C27.0342 64.9166 27.4587 65.0786 27.7827 65.4019C28.4306 66.0491 28.4306 67.0991 27.7827 67.7463C27.1348 68.3935 26.0854 68.3935 25.4383 67.7463C24.7911 67.0991 24.7911 66.0491 25.4383 65.4019C25.7629 65.0772 26.186 64.9166 26.6105 64.9166ZM52.7977 64.9166C53.2222 64.9166 53.6467 65.0786 53.9706 65.4019C54.6178 66.0491 54.6178 67.0991 53.9706 67.7463C53.3234 68.3935 52.2727 68.3935 51.6255 67.7463C50.9783 67.0991 50.9783 66.0491 51.6255 65.4019C51.9501 65.0772 52.3739 64.9166 52.7977 64.9166Z" fill="#111111"/>
<path d="M86.7395 64.9582V64.1881H91.1548V31.7918H84.8912C82.2728 31.7918 81.1946 33.178 80.7839 36.9259L80.3731 40.6225H79.603C79.603 40.6225 79.9111 36.0018 79.9111 34.2562V31.0217H108.714V34.2562C108.714 36.0018 108.919 40.6225 108.919 40.6225H108.149L107.789 36.8232C107.481 33.332 106.506 31.7918 103.836 31.7918H97.4184V64.1881H101.885V64.9582H86.7395ZM111.127 64.9582V64.1881H114.515V42.6248H111.127V41.8547H120.265V64.1881H123.654V64.9582H111.127ZM113.899 33.4347C113.899 31.6378 115.388 30.2002 117.185 30.2002C118.93 30.2002 120.368 31.6378 120.368 33.4347C120.368 35.1803 118.93 36.6692 117.185 36.6692C115.388 36.6692 113.899 35.1803 113.899 33.4347ZM125.451 64.9582V64.1881H128.839V42.6248H125.451V41.8547H134.487V47.2968H134.589C135.565 44.5244 137.567 41.4953 141.264 41.4953C144.139 41.4953 146.449 43.2409 146.449 46.2187C146.449 49.0424 144.498 50.5827 142.239 50.5827C141.675 50.5827 141.007 50.48 140.34 50.2746V49.8639C141.931 50.1206 142.239 48.1183 142.239 46.424C142.239 44.011 141.469 42.6761 139.929 42.6761C138.543 42.6761 137.311 43.7543 136.335 45.3459C135.206 47.1942 134.589 49.7099 134.589 51.0961V64.1881H138.543V64.9582H125.451ZM154.767 52.7904V53.5605C154.767 62.6479 156.923 64.4962 160.671 64.4962C164.47 64.4962 168.013 62.0831 168.013 58.2325H168.783C168.731 61.313 166.934 63.418 164.316 64.5475C162.981 65.1122 161.698 65.3176 160.106 65.3176C153.38 65.3176 148.708 62.0831 148.708 53.4064C148.708 44.9351 153.175 41.4953 159.695 41.4953C165.754 41.4953 169.296 44.5244 169.296 50.7367V52.7904H154.767ZM154.818 52.0202H163.597V49.6072C163.597 44.7811 162.673 42.1627 159.593 42.1627C156.255 42.1627 154.972 44.8838 154.818 52.0202ZM211.396 54.844H212.217C212.217 58.6433 209.65 65.3176 200.974 65.3176C191.168 65.3176 184.955 58.0785 184.955 47.8102C184.955 37.6447 191.476 30.6623 200.974 30.6623C204.157 30.6623 206.981 31.6378 208.983 33.486C210.472 33.486 211.242 32.9213 211.961 31.0217H212.628C212.371 31.8945 211.653 36.3098 211.653 38.4148V41.598H210.883V39.647C210.883 34.7696 206.775 31.4324 200.974 31.4324C193.221 31.4324 191.681 39.8524 191.681 48.067C191.681 56.795 193.427 64.5475 201.076 64.5475C203.438 64.5475 205.543 63.9314 207.135 62.9046C209.958 61.0563 211.396 57.8218 211.396 54.844ZM214.939 64.9582V64.1881H218.327V28.8653H214.887V28.0952H224.077V47.0915H224.18C224.693 45.7566 226.542 41.4953 232.497 41.4953C237.169 41.4953 239.736 43.4976 239.736 48.529V64.1881H243.176V64.9582H230.957V64.1881H233.986V47.2968C233.986 44.011 233.165 42.7275 230.803 42.7275C225.926 42.7275 224.077 48.4263 224.077 51.0961V64.1881H227.158V64.9582H214.939ZM259.451 61.1076H259.349C258.322 63.1099 255.96 65.3176 252.212 65.3176C248.875 65.3176 245.23 63.8287 245.23 59.5674C245.23 54.0225 252.264 52.2256 258.476 52.2256H258.989V46.8348C258.989 43.857 258.117 42.1627 254.985 42.1627C252.007 42.1627 250.621 43.4462 250.621 46.0646C250.621 47.7589 251.288 49.1965 253.034 48.8884V49.2991C253.034 49.2991 251.904 49.6585 250.672 49.6585C248.259 49.6585 246.462 48.4777 246.462 46.3214C246.462 43.4462 249.44 41.4953 255.087 41.4953C262.07 41.4953 264.74 44.0623 264.74 48.529V61.8264C264.74 63.264 265.048 64.0341 266.074 64.0341C267.666 64.0341 268.333 62.1858 268.333 60.4915H269.104C269.104 63.7774 267.204 65.3176 264.483 65.3176C261.608 65.3176 259.657 63.7774 259.451 61.1076ZM258.989 59.5674V52.9957H258.322C255.96 52.9957 254.471 53.5091 253.393 54.2279C251.904 55.2547 251.237 57.0517 251.237 59.5674C251.237 62.7506 252.212 64.0854 253.958 64.0854C254.831 64.0854 255.703 63.726 256.576 63.1613C257.86 62.2371 258.989 60.6969 258.989 59.5674ZM270.182 64.9582V64.1881H273.57V42.6248H270.182V41.8547H279.218V47.2968H279.32C279.937 45.7566 281.785 41.4953 287.74 41.4953C292.412 41.4953 294.98 43.4976 294.98 48.529V64.1881H298.419V64.9582H286.2V64.1881H289.229V47.2968C289.229 44.011 288.408 42.7275 286.046 42.7275C281.169 42.7275 279.32 48.375 279.32 51.1474V64.1881H282.401V64.9582H270.182ZM307.404 68.6548V69.0655C305.556 68.7575 304.786 69.887 304.786 72.0433C304.786 75.0211 307.096 76.2533 311.922 76.2533C317.108 76.2533 321.78 74.559 321.78 71.0165C321.78 67.936 317.467 67.5253 312.025 67.1146C306.942 66.7038 300.576 66.2931 300.576 60.8509C300.576 57.9758 302.629 56.1789 304.529 54.844C302.835 53.5091 302.013 51.6095 302.013 49.4018C302.013 45.0378 305.248 41.4953 311.871 41.4953C314.9 41.4953 317.364 42.2654 319.007 43.6003C320.137 42.7275 320.599 41.9573 320.599 40.4171C320.599 38.6202 319.88 37.696 317.98 37.7987V37.388C317.98 37.388 318.699 37.0799 319.983 37.0799C323.063 37.0799 324.039 38.5688 324.039 39.9037C324.039 41.906 321.934 42.8302 319.521 44.011C320.907 45.3459 321.626 47.0915 321.626 49.1451C321.626 53.7658 318.032 56.8463 311.614 56.8463C308.893 56.8463 306.737 56.2816 305.145 55.3061C303.81 56.2816 302.732 57.3084 302.732 58.6946C302.732 61.5184 307.507 61.3643 312.846 61.8264C319.264 62.3398 323.679 63.6234 323.679 68.9628C323.679 74.9184 317.98 77.0234 311.922 77.0234C305.556 77.0234 300.935 75.0211 300.935 71.9406C300.935 69.4763 303.554 68.3981 305.71 68.3981C306.685 68.3981 307.404 68.6548 307.404 68.6548ZM311.665 56.1275C314.951 56.1275 315.875 53.7658 315.875 49.1965C315.875 44.7298 315.003 42.2141 311.717 42.2141C308.482 42.2141 307.661 44.7298 307.661 49.2991C307.661 53.7145 308.431 56.1275 311.665 56.1275ZM332.151 52.7904V53.5605C332.151 62.6479 334.307 64.4962 338.055 64.4962C341.854 64.4962 345.397 62.0831 345.397 58.2325H346.167C346.115 61.313 344.318 63.418 341.7 64.5475C340.365 65.1122 339.082 65.3176 337.49 65.3176C330.764 65.3176 326.092 62.0831 326.092 53.4064C326.092 44.9351 330.559 41.4953 337.079 41.4953C343.138 41.4953 346.68 44.5244 346.68 50.7367V52.7904H332.151ZM332.202 52.0202H340.981V49.6072C340.981 44.7811 340.057 42.1627 336.977 42.1627C333.639 42.1627 332.356 44.8838 332.202 52.0202Z" fill="#111111"/>
</g>
<defs>
<clipPath id="clip0_1040_18">
<rect width="346.68" height="87.6095" fill="white"/>
</clipPath>
</defs>
</svg>
